<svg xmlns="http://www.w3.org/2000/svg" width="900" height="222" viewBox="0 0 900 222">
  <defs>
    <linearGradient id="bg" x1="0" y1="0" x2="1" y2="0">
      <stop offset="0" stop-color="#0B0B0E"/>
      <stop offset=".25" stop-color="#2B1117"/>
      <stop offset=".73" stop-color="#160F13"/>
      <stop offset="1" stop-color="#0B0B0E"/>
    </linearGradient>
    <pattern id="scan" width="5" height="5" patternUnits="userSpaceOnUse">
      <rect width="5" height="1" fill="#FFFFFF" opacity=".028"/>
    </pattern>
    <pattern id="grid" width="34" height="34" patternUnits="userSpaceOnUse">
      <path d="M34 0H0V34" fill="none" stroke="#B92F3B" stroke-width=".55" opacity=".12"/>
    </pattern>
    <filter id="noise">
      <feTurbulence type="fractalNoise" baseFrequency=".7" numOctaves="2" seed="29"/>
      <feColorMatrix values="1 0 0 0 0
                             0 1 0 0 0
                             0 0 1 0 0
                             0 0 0 .055 0"/>
    </filter>
  </defs>

  <rect width="900" height="222" rx="5" fill="url(#bg)"/>
  <rect width="900" height="222" rx="5" fill="url(#grid)"/>
  <rect width="900" height="222" rx="5" filter="url(#noise)" opacity=".26"/>
  <rect width="900" height="222" rx="5" fill="url(#scan)"/>

  <path d="M0 11H235L253 3H646L666 11H900" fill="none" stroke="#F9E33D" stroke-width="2"/>
  <path d="M0 211H175L193 219H708L726 211H900" fill="none" stroke="#B92F3B" stroke-width="2"/>
  
      <g>
        <rect x="30.0" y="30.0" width="77.7" height="42" rx="3"
              fill="#100D11" stroke="#F9E33D" stroke-width="1.2"/>
        <rect x="34.0" y="34.0" width="11" height="2" fill="#F9E33D" opacity=".9"/>
        <rect x="92.7" y="66.0" width="11" height="2" fill="#F9E33D" opacity=".65"/>
        <text x="68.8" y="56.0" text-anchor="middle"
              font-family="JetBrains Mono, Consolas, monospace" font-size="11"
              font-weight="700" fill="#EEE5C9">Java</text>
      </g>
    
      <g>
        <rect x="114.7" y="30.0" width="77.7" height="42" rx="3"
              fill="#100D11" stroke="#B8E7EA" stroke-width="1.2"/>
        <rect x="118.7" y="34.0" width="11" height="2" fill="#B8E7EA" opacity=".9"/>
        <rect x="177.4" y="66.0" width="11" height="2" fill="#B8E7EA" opacity=".65"/>
        <text x="153.6" y="56.0" text-anchor="middle"
              font-family="JetBrains Mono, Consolas, monospace" font-size="11"
              font-weight="700" fill="#EEE5C9">Python</text>
      </g>
    
      <g>
        <rect x="199.4" y="30.0" width="77.7" height="42" rx="3"
              fill="#100D11" stroke="#B92F3B" stroke-width="1.2"/>
        <rect x="203.4" y="34.0" width="11" height="2" fill="#B92F3B" opacity=".9"/>
        <rect x="262.1" y="66.0" width="11" height="2" fill="#B92F3B" opacity=".65"/>
        <text x="238.2" y="56.0" text-anchor="middle"
              font-family="JetBrains Mono, Consolas, monospace" font-size="11"
              font-weight="700" fill="#EEE5C9">Go</text>
      </g>
    
      <g>
        <rect x="284.1" y="30.0" width="77.7" height="42" rx="3"
              fill="#100D11" stroke="#F9E33D" stroke-width="1.2"/>
        <rect x="288.1" y="34.0" width="11" height="2" fill="#F9E33D" opacity=".9"/>
        <rect x="346.8" y="66.0" width="11" height="2" fill="#F9E33D" opacity=".65"/>
        <text x="323.0" y="56.0" text-anchor="middle"
              font-family="JetBrains Mono, Consolas, monospace" font-size="11"
              font-weight="700" fill="#EEE5C9">JavaScript</text>
      </g>
    
      <g>
        <rect x="368.8" y="30.0" width="77.7" height="42" rx="3"
              fill="#100D11" stroke="#B92F3B" stroke-width="1.2"/>
        <rect x="372.8" y="34.0" width="11" height="2" fill="#B92F3B" opacity=".9"/>
        <rect x="431.5" y="66.0" width="11" height="2" fill="#B92F3B" opacity=".65"/>
        <text x="407.7" y="56.0" text-anchor="middle"
              font-family="JetBrains Mono, Consolas, monospace" font-size="11"
              font-weight="700" fill="#EEE5C9">TypeScript</text>
      </g>
    
      <g>
        <rect x="453.5" y="30.0" width="77.7" height="42" rx="3"
              fill="#100D11" stroke="#F9E33D" stroke-width="1.2"/>
        <rect x="457.5" y="34.0" width="11" height="2" fill="#F9E33D" opacity=".9"/>
        <rect x="516.2" y="66.0" width="11" height="2" fill="#F9E33D" opacity=".65"/>
        <text x="492.4" y="56.0" text-anchor="middle"
              font-family="JetBrains Mono, Consolas, monospace" font-size="11"
              font-weight="700" fill="#EEE5C9">C#</text>
      </g>
    
      <g>
        <rect x="538.2" y="30.0" width="77.7" height="42" rx="3"
              fill="#100D11" stroke="#B8E7EA" stroke-width="1.2"/>
        <rect x="542.2" y="34.0" width="11" height="2" fill="#B8E7EA" opacity=".9"/>
        <rect x="600.9" y="66.0" width="11" height="2" fill="#B8E7EA" opacity=".65"/>
        <text x="577.1" y="56.0" text-anchor="middle"
              font-family="JetBrains Mono, Consolas, monospace" font-size="11"
              font-weight="700" fill="#EEE5C9">C</text>
      </g>
    
      <g>
        <rect x="622.9" y="30.0" width="77.7" height="42" rx="3"
              fill="#100D11" stroke="#B92F3B" stroke-width="1.2"/>
        <rect x="626.9" y="34.0" width="11" height="2" fill="#B92F3B" opacity=".9"/>
        <rect x="685.6" y="66.0" width="11" height="2" fill="#B92F3B" opacity=".65"/>
        <text x="661.8" y="56.0" text-anchor="middle"
              font-family="JetBrains Mono, Consolas, monospace" font-size="11"
              font-weight="700" fill="#EEE5C9">C++</text>
      </g>
    
      <g>
        <rect x="707.6" y="30.0" width="77.7" height="42" rx="3"
              fill="#100D11" stroke="#F9E33D" stroke-width="1.2"/>
        <rect x="711.6" y="34.0" width="11" height="2" fill="#F9E33D" opacity=".9"/>
        <rect x="770.3" y="66.0" width="11" height="2" fill="#F9E33D" opacity=".65"/>
        <text x="746.5" y="56.0" text-anchor="middle"
              font-family="JetBrains Mono, Consolas, monospace" font-size="11"
              font-weight="700" fill="#EEE5C9">SQL</text>
      </g>
    
      <g>
        <rect x="792.3" y="30.0" width="77.7" height="42" rx="3"
              fill="#100D11" stroke="#B92F3B" stroke-width="1.2"/>
        <rect x="796.3" y="34.0" width="11" height="2" fill="#B92F3B" opacity=".9"/>
        <rect x="855.0" y="66.0" width="11" height="2" fill="#B92F3B" opacity=".65"/>
        <text x="831.2" y="56.0" text-anchor="middle"
              font-family="JetBrains Mono, Consolas, monospace" font-size="11"
              font-weight="700" fill="#EEE5C9">HTML/CSS</text>
      </g>
    
      <g>
        <rect x="30.0" y="85.0" width="77.7" height="42" rx="3"
              fill="#100D11" stroke="#F9E33D" stroke-width="1.2"/>
        <rect x="34.0" y="89.0" width="11" height="2" fill="#F9E33D" opacity=".9"/>
        <rect x="92.7" y="121.0" width="11" height="2" fill="#F9E33D" opacity=".65"/>
        <text x="68.8" y="111.0" text-anchor="middle"
              font-family="JetBrains Mono, Consolas, monospace" font-size="9.5"
              font-weight="700" fill="#EEE5C9">Spring Boot</text>
      </g>
    
      <g>
        <rect x="114.7" y="85.0" width="77.7" height="42" rx="3"
              fill="#100D11" stroke="#B8E7EA" stroke-width="1.2"/>
        <rect x="118.7" y="89.0" width="11" height="2" fill="#B8E7EA" opacity=".9"/>
        <rect x="177.4" y="121.0" width="11" height="2" fill="#B8E7EA" opacity=".65"/>
        <text x="153.6" y="111.0" text-anchor="middle"
              font-family="JetBrains Mono, Consolas, monospace" font-size="11"
              font-weight="700" fill="#EEE5C9">Django</text>
      </g>
    
      <g>
        <rect x="199.4" y="85.0" width="77.7" height="42" rx="3"
              fill="#100D11" stroke="#B92F3B" stroke-width="1.2"/>
        <rect x="203.4" y="89.0" width="11" height="2" fill="#B92F3B" opacity=".9"/>
        <rect x="262.1" y="121.0" width="11" height="2" fill="#B92F3B" opacity=".65"/>
        <text x="238.2" y="111.0" text-anchor="middle"
              font-family="JetBrains Mono, Consolas, monospace" font-size="11"
              font-weight="700" fill="#EEE5C9">Flask</text>
      </g>
    
      <g>
        <rect x="284.1" y="85.0" width="77.7" height="42" rx="3"
              fill="#100D11" stroke="#F9E33D" stroke-width="1.2"/>
        <rect x="288.1" y="89.0" width="11" height="2" fill="#F9E33D" opacity=".9"/>
        <rect x="346.8" y="121.0" width="11" height="2" fill="#F9E33D" opacity=".65"/>
        <text x="323.0" y="111.0" text-anchor="middle"
              font-family="JetBrains Mono, Consolas, monospace" font-size="11"
              font-weight="700" fill="#EEE5C9">FastAPI</text>
      </g>
    
      <g>
        <rect x="368.8" y="85.0" width="77.7" height="42" rx="3"
              fill="#100D11" stroke="#B92F3B" stroke-width="1.2"/>
        <rect x="372.8" y="89.0" width="11" height="2" fill="#B92F3B" opacity=".9"/>
        <rect x="431.5" y="121.0" width="11" height="2" fill="#B92F3B" opacity=".65"/>
        <text x="407.7" y="111.0" text-anchor="middle"
              font-family="JetBrains Mono, Consolas, monospace" font-size="11"
              font-weight="700" fill="#EEE5C9">Node.js</text>
      </g>
    
      <g>
        <rect x="453.5" y="85.0" width="77.7" height="42" rx="3"
              fill="#100D11" stroke="#F9E33D" stroke-width="1.2"/>
        <rect x="457.5" y="89.0" width="11" height="2" fill="#F9E33D" opacity=".9"/>
        <rect x="516.2" y="121.0" width="11" height="2" fill="#F9E33D" opacity=".65"/>
        <text x="492.4" y="111.0" text-anchor="middle"
              font-family="JetBrains Mono, Consolas, monospace" font-size="11"
              font-weight="700" fill="#EEE5C9">Express.js</text>
      </g>
    
      <g>
        <rect x="538.2" y="85.0" width="77.7" height="42" rx="3"
              fill="#100D11" stroke="#B8E7EA" stroke-width="1.2"/>
        <rect x="542.2" y="89.0" width="11" height="2" fill="#B8E7EA" opacity=".9"/>
        <rect x="600.9" y="121.0" width="11" height="2" fill="#B8E7EA" opacity=".65"/>
        <text x="577.1" y="111.0" text-anchor="middle"
              font-family="JetBrains Mono, Consolas, monospace" font-size="11"
              font-weight="700" fill="#EEE5C9">Next.js</text>
      </g>
    
      <g>
        <rect x="622.9" y="85.0" width="77.7" height="42" rx="3"
              fill="#100D11" stroke="#B92F3B" stroke-width="1.2"/>
        <rect x="626.9" y="89.0" width="11" height="2" fill="#B92F3B" opacity=".9"/>
        <rect x="685.6" y="121.0" width="11" height="2" fill="#B92F3B" opacity=".65"/>
        <text x="661.8" y="111.0" text-anchor="middle"
              font-family="JetBrains Mono, Consolas, monospace" font-size="11"
              font-weight="700" fill="#EEE5C9">React</text>
      </g>
    
      <g>
        <rect x="707.6" y="85.0" width="77.7" height="42" rx="3"
              fill="#100D11" stroke="#F9E33D" stroke-width="1.2"/>
        <rect x="711.6" y="89.0" width="11" height="2" fill="#F9E33D" opacity=".9"/>
        <rect x="770.3" y="121.0" width="11" height="2" fill="#F9E33D" opacity=".65"/>
        <text x="746.5" y="111.0" text-anchor="middle"
              font-family="JetBrains Mono, Consolas, monospace" font-size="11"
              font-weight="700" fill="#EEE5C9">Selenium</text>
      </g>
    
      <g>
        <rect x="792.3" y="85.0" width="77.7" height="42" rx="3"
              fill="#100D11" stroke="#B92F3B" stroke-width="1.2"/>
        <rect x="796.3" y="89.0" width="11" height="2" fill="#B92F3B" opacity=".9"/>
        <rect x="855.0" y="121.0" width="11" height="2" fill="#B92F3B" opacity=".65"/>
        <text x="831.2" y="111.0" text-anchor="middle"
              font-family="JetBrains Mono, Consolas, monospace" font-size="11"
              font-weight="700" fill="#EEE5C9">Jenkins</text>
      </g>
    
      <g>
        <rect x="30.0" y="140.0" width="77.7" height="42" rx="3"
              fill="#100D11" stroke="#F9E33D" stroke-width="1.2"/>
        <rect x="34.0" y="144.0" width="11" height="2" fill="#F9E33D" opacity=".9"/>
        <rect x="92.7" y="176.0" width="11" height="2" fill="#F9E33D" opacity=".65"/>
        <text x="68.8" y="166.0" text-anchor="middle"
              font-family="JetBrains Mono, Consolas, monospace" font-size="11"
              font-weight="700" fill="#EEE5C9">PostgreSQL</text>
      </g>
    
      <g>
        <rect x="114.7" y="140.0" width="77.7" height="42" rx="3"
              fill="#100D11" stroke="#B8E7EA" stroke-width="1.2"/>
        <rect x="118.7" y="144.0" width="11" height="2" fill="#B8E7EA" opacity=".9"/>
        <rect x="177.4" y="176.0" width="11" height="2" fill="#B8E7EA" opacity=".65"/>
        <text x="153.6" y="166.0" text-anchor="middle"
              font-family="JetBrains Mono, Consolas, monospace" font-size="11"
              font-weight="700" fill="#EEE5C9">MySQL</text>
      </g>
    
      <g>
        <rect x="199.4" y="140.0" width="77.7" height="42" rx="3"
              fill="#100D11" stroke="#B92F3B" stroke-width="1.2"/>
        <rect x="203.4" y="144.0" width="11" height="2" fill="#B92F3B" opacity=".9"/>
        <rect x="262.1" y="176.0" width="11" height="2" fill="#B92F3B" opacity=".65"/>
        <text x="238.2" y="166.0" text-anchor="middle"
              font-family="JetBrains Mono, Consolas, monospace" font-size="11"
              font-weight="700" fill="#EEE5C9">MongoDB</text>
      </g>
    
      <g>
        <rect x="284.1" y="140.0" width="77.7" height="42" rx="3"
              fill="#100D11" stroke="#F9E33D" stroke-width="1.2"/>
        <rect x="288.1" y="144.0" width="11" height="2" fill="#F9E33D" opacity=".9"/>
        <rect x="346.8" y="176.0" width="11" height="2" fill="#F9E33D" opacity=".65"/>
        <text x="323.0" y="166.0" text-anchor="middle"
              font-family="JetBrains Mono, Consolas, monospace" font-size="11"
              font-weight="700" fill="#EEE5C9">SQLite</text>
      </g>
    
      <g>
        <rect x="368.8" y="140.0" width="77.7" height="42" rx="3"
              fill="#100D11" stroke="#B92F3B" stroke-width="1.2"/>
        <rect x="372.8" y="144.0" width="11" height="2" fill="#B92F3B" opacity=".9"/>
        <rect x="431.5" y="176.0" width="11" height="2" fill="#B92F3B" opacity=".65"/>
        <text x="407.7" y="166.0" text-anchor="middle"
              font-family="JetBrains Mono, Consolas, monospace" font-size="11"
              font-weight="700" fill="#EEE5C9">Redis</text>
      </g>
    
      <g>
        <rect x="453.5" y="140.0" width="77.7" height="42" rx="3"
              fill="#100D11" stroke="#F9E33D" stroke-width="1.2"/>
        <rect x="457.5" y="144.0" width="11" height="2" fill="#F9E33D" opacity=".9"/>
        <rect x="516.2" y="176.0" width="11" height="2" fill="#F9E33D" opacity=".65"/>
        <text x="492.4" y="166.0" text-anchor="middle"
              font-family="JetBrains Mono, Consolas, monospace" font-size="11"
              font-weight="700" fill="#EEE5C9">Docker</text>
      </g>
    
      <g>
        <rect x="538.2" y="140.0" width="77.7" height="42" rx="3"
              fill="#100D11" stroke="#B8E7EA" stroke-width="1.2"/>
        <rect x="542.2" y="144.0" width="11" height="2" fill="#B8E7EA" opacity=".9"/>
        <rect x="600.9" y="176.0" width="11" height="2" fill="#B8E7EA" opacity=".65"/>
        <text x="577.1" y="166.0" text-anchor="middle"
              font-family="JetBrains Mono, Consolas, monospace" font-size="11"
              font-weight="700" fill="#EEE5C9">Kubernetes</text>
      </g>
    
      <g>
        <rect x="622.9" y="140.0" width="77.7" height="42" rx="3"
              fill="#100D11" stroke="#B92F3B" stroke-width="1.2"/>
        <rect x="626.9" y="144.0" width="11" height="2" fill="#B92F3B" opacity=".9"/>
        <rect x="685.6" y="176.0" width="11" height="2" fill="#B92F3B" opacity=".65"/>
        <text x="661.8" y="166.0" text-anchor="middle"
              font-family="JetBrains Mono, Consolas, monospace" font-size="11"
              font-weight="700" fill="#EEE5C9">AWS</text>
      </g>
    
      <g>
        <rect x="707.6" y="140.0" width="77.7" height="42" rx="3"
              fill="#100D11" stroke="#F9E33D" stroke-width="1.2"/>
        <rect x="711.6" y="144.0" width="11" height="2" fill="#F9E33D" opacity=".9"/>
        <rect x="770.3" y="176.0" width="11" height="2" fill="#F9E33D" opacity=".65"/>
        <text x="746.5" y="166.0" text-anchor="middle"
              font-family="JetBrains Mono, Consolas, monospace" font-size="11"
              font-weight="700" fill="#EEE5C9">GCP</text>
      </g>
    
      <g>
        <rect x="792.3" y="140.0" width="77.7" height="42" rx="3"
              fill="#100D11" stroke="#B92F3B" stroke-width="1.2"/>
        <rect x="796.3" y="144.0" width="11" height="2" fill="#B92F3B" opacity=".9"/>
        <rect x="855.0" y="176.0" width="11" height="2" fill="#B92F3B" opacity=".65"/>
        <text x="831.2" y="166.0" text-anchor="middle"
              font-family="JetBrains Mono, Consolas, monospace" font-size="11"
              font-weight="700" fill="#EEE5C9">Terraform</text>
      </g>
    

  <rect x="-180" y="104" width="225" height="2" fill="#B8E7EA" opacity=".55">
    <animate attributeName="x" values="-225;940" dur="5s" repeatCount="indefinite"/>
  </rect>
  <rect x="1" y="1" width="898" height="220" rx="5" fill="none" stroke="#5C2026" stroke-width="1.5"/>
</svg>
