<svg xmlns="http://www.w3.org/2000/svg" width="900" height="178" viewBox="0 0 900 178">
  <defs>
    <linearGradient id="bg" x1="0" y1="0" x2="1" y2="1">
      <stop offset="0" stop-color="#160F13"/>
      <stop offset=".48" stop-color="#2B1117"/>
      <stop offset="1" stop-color="#0B0B0E"/>
    </linearGradient>
    <pattern id="scan" width="4" height="4" patternUnits="userSpaceOnUse">
      <rect width="4" height="1" fill="#FFFFFF" opacity=".035"/>
    </pattern>
    <pattern id="grid" width="42" height="42" patternUnits="userSpaceOnUse">
      <path d="M42 0H0V42" fill="none" stroke="#B92F3B" stroke-width=".6" opacity=".13"/>
    </pattern>
    <filter id="glowY" x="-40%" y="-40%" width="180%" height="180%">
      <feGaussianBlur stdDeviation="4" result="b"/>
      <feMerge><feMergeNode in="b"/><feMergeNode in="SourceGraphic"/></feMerge>
    </filter>
    <filter id="noise">
      <feTurbulence type="fractalNoise" baseFrequency=".85" numOctaves="2" seed="17"/>
      <feColorMatrix values="1 0 0 0 0
                             0 1 0 0 0
                             0 0 1 0 0
                             0 0 0 .07 0"/>
    </filter>
    <clipPath id="clip"><rect width="900" height="178" rx="5"/></clipPath>
  </defs>

  <g clip-path="url(#clip)">
    <rect width="900" height="178" fill="url(#bg)"/>
    <rect width="900" height="178" fill="url(#grid)"/>
    <rect width="900" height="178" filter="url(#noise)" opacity=".28"/>
    <rect width="900" height="178" fill="url(#scan)"/>

    <path d="M0 26H282L306 15H545L568 26H900" fill="none" stroke="#F9E33D" stroke-width="2" opacity=".8"/>
    <path d="M0 151H222L246 161H631L654 151H900" fill="none" stroke="#B92F3B" stroke-width="2" opacity=".8"/>
    <path d="M42 50H184" stroke="#B8E7EA" stroke-width="2" opacity=".65"/>
    <path d="M716 126H858" stroke="#B8E7EA" stroke-width="2" opacity=".55"/>

    <g transform="translate(450 84) skewX(-10)">
      <text x="5" y="6" text-anchor="middle" font-family="Arial Black, Impact, sans-serif"
            font-size="51" letter-spacing="2" fill="#B92F3B" opacity=".78">SOFTWARE ENGINEER</text>
      <text x="-4" y="2" text-anchor="middle" font-family="Arial Black, Impact, sans-serif"
            font-size="51" letter-spacing="2" fill="#B8E7EA" opacity=".48">SOFTWARE ENGINEER</text>
      <text x="0" y="0" text-anchor="middle" font-family="Arial Black, Impact, sans-serif"
            font-size="51" letter-spacing="2" fill="#F9E33D" stroke="#FFF7A1" stroke-width=".7"
            filter="url(#glowY)">SOFTWARE ENGINEER</text>
    </g>

    <text x="450" y="123" text-anchor="middle" font-family="monospace" font-size="13"
          letter-spacing="3" fill="#B8E7EA">BACKEND  /  CLOUD  /  DISTRIBUTED SYSTEMS</text>

    <g opacity=".72">
      <rect x="54" y="135" width="98" height="3" fill="#F9E33D"/>
      <rect x="160" y="135" width="36" height="3" fill="#B92F3B"/>
      <rect x="705" y="39" width="78" height="3" fill="#B92F3B"/>
      <rect x="791" y="39" width="38" height="3" fill="#F9E33D"/>
    </g>

    <rect x="-120" y="87" width="280" height="3" fill="#B92F3B" opacity=".45">
      <animate attributeName="x" values="-280;940" dur="5.5s" repeatCount="indefinite"/>
    </rect>
    <rect x="-240" y="95" width="165" height="1.5" fill="#B8E7EA" opacity=".52">
      <animate attributeName="x" values="-240;950" dur="4.2s" repeatCount="indefinite"/>
    </rect>
  </g>

  <rect x="1" y="1" width="898" height="176" rx="5" fill="none" stroke="#B92F3B" opacity=".6"/>
</svg>
